<svg xmlns="http://www.w3.org/2000/svg" viewBox="0 0 64 64" role="img" aria-label="NeroCare">
  <defs>
    <linearGradient id="nc" x1="0" y1="0" x2="1" y2="1">
      <stop offset="0" stop-color="#0ea5e9" />
      <stop offset="1" stop-color="#10b981" />
    </linearGradient>
  </defs>
  <rect width="64" height="64" rx="14" fill="url(#nc)" />
  <path d="M20 36c0-8 6-14 12-14h12a2 2 0 1 1 0 4H32c-3 0-8 3-8 10a2 2 0 1 1-4 0z" fill="#ffffff" />
  <path d="M44 28c0 8-6 14-12 14H20a2 2 0 1 1 0-4h12c3 0 8-3 8-10a2 2 0 1 1 4 0z" fill="#ffffff" />
</svg>
